<mxfile host="app.diagrams.net" modified="2021-02-08T15:20:27.276Z" agent="5.0 (Windows NT 10.0; Win64; x64) AppleWebKit/537.36 (KHTML, like Gecko) Chrome/88.0.4324.146 Safari/537.36" etag="ulQSMjIIhvHg7aYUmA2q" version="14.3.0" type="github">
  <diagram id="0Djbgz4iHGZcmh1q1ype" name="Page-1">
    <mxGraphModel dx="1422" dy="762" grid="1" gridSize="10" guides="1" tooltips="1" connect="1" arrows="1" fold="1" page="1" pageScale="1" pageWidth="1654" pageHeight="1169" math="0" shadow="0">
      <root>
        <mxCell id="0" />
        <mxCell id="1" parent="0" />
        <mxCell id="SeFLylKDZ3_vUsJZjrmW-46" value="" style="rounded=0;whiteSpace=wrap;html=1;fillColor=none;dashed=1;" vertex="1" parent="1">
          <mxGeometry x="630" y="430" width="250" height="280" as="geometry" />
        </mxCell>
        <mxCell id="SeFLylKDZ3_vUsJZjrmW-45" value="" style="rounded=0;whiteSpace=wrap;html=1;fillColor=none;dashed=1;" vertex="1" parent="1">
          <mxGeometry x="600" y="30" width="740" height="350" as="geometry" />
        </mxCell>
        <mxCell id="SeFLylKDZ3_vUsJZjrmW-44" value="" style="rounded=0;whiteSpace=wrap;html=1;fillColor=none;dashed=1;" vertex="1" parent="1">
          <mxGeometry x="220" y="90" width="250" height="390" as="geometry" />
        </mxCell>
        <mxCell id="SeFLylKDZ3_vUsJZjrmW-1" value="leaflat map" style="rounded=0;whiteSpace=wrap;html=1;fillColor=#d5e8d4;strokeColor=#82b366;" vertex="1" parent="1">
          <mxGeometry x="380" y="940" width="120" height="60" as="geometry" />
        </mxCell>
        <mxCell id="SeFLylKDZ3_vUsJZjrmW-2" value="L.map()" style="rounded=0;whiteSpace=wrap;html=1;strokeColor=#82B366;" vertex="1" parent="1">
          <mxGeometry x="380" y="1000" width="120" height="60" as="geometry" />
        </mxCell>
        <mxCell id="SeFLylKDZ3_vUsJZjrmW-3" value="weather data" style="rounded=0;whiteSpace=wrap;html=1;strokeColor=#82b366;fillColor=#d5e8d4;" vertex="1" parent="1">
          <mxGeometry x="570" y="940" width="120" height="60" as="geometry" />
        </mxCell>
        <mxCell id="SeFLylKDZ3_vUsJZjrmW-10" style="edgeStyle=orthogonalEdgeStyle;rounded=0;orthogonalLoop=1;jettySize=auto;html=1;entryX=0;entryY=0.5;entryDx=0;entryDy=0;endArrow=none;endFill=0;" edge="1" parent="1" source="SeFLylKDZ3_vUsJZjrmW-4" target="SeFLylKDZ3_vUsJZjrmW-9">
          <mxGeometry relative="1" as="geometry" />
        </mxCell>
        <mxCell id="SeFLylKDZ3_vUsJZjrmW-4" value="getCity(userInput)" style="rounded=0;whiteSpace=wrap;html=1;strokeColor=#82B366;" vertex="1" parent="1">
          <mxGeometry x="570" y="1000" width="120" height="60" as="geometry" />
        </mxCell>
        <mxCell id="SeFLylKDZ3_vUsJZjrmW-5" value="L.tileLayer().addTo()" style="rounded=0;whiteSpace=wrap;html=1;strokeColor=#82B366;" vertex="1" parent="1">
          <mxGeometry x="380" y="1060" width="120" height="60" as="geometry" />
        </mxCell>
        <mxCell id="SeFLylKDZ3_vUsJZjrmW-8" value="API" style="rounded=0;whiteSpace=wrap;html=1;strokeColor=#82b366;fillColor=#d5e8d4;" vertex="1" parent="1">
          <mxGeometry x="750" y="940" width="120" height="60" as="geometry" />
        </mxCell>
        <mxCell id="SeFLylKDZ3_vUsJZjrmW-13" style="edgeStyle=orthogonalEdgeStyle;rounded=0;orthogonalLoop=1;jettySize=auto;html=1;entryX=0;entryY=0.5;entryDx=0;entryDy=0;endArrow=none;endFill=0;" edge="1" parent="1" source="SeFLylKDZ3_vUsJZjrmW-9" target="SeFLylKDZ3_vUsJZjrmW-12">
          <mxGeometry relative="1" as="geometry" />
        </mxCell>
        <mxCell id="SeFLylKDZ3_vUsJZjrmW-9" value="fetch(openweather?q={userInput})" style="rounded=0;whiteSpace=wrap;html=1;strokeColor=#82B366;" vertex="1" parent="1">
          <mxGeometry x="750" y="1000" width="120" height="60" as="geometry" />
        </mxCell>
        <mxCell id="SeFLylKDZ3_vUsJZjrmW-11" value="Data" style="rounded=0;whiteSpace=wrap;html=1;strokeColor=#82b366;fillColor=#d5e8d4;" vertex="1" parent="1">
          <mxGeometry x="920" y="940" width="120" height="60" as="geometry" />
        </mxCell>
        <mxCell id="SeFLylKDZ3_vUsJZjrmW-16" style="edgeStyle=orthogonalEdgeStyle;rounded=0;orthogonalLoop=1;jettySize=auto;html=1;endArrow=none;endFill=0;" edge="1" parent="1" source="SeFLylKDZ3_vUsJZjrmW-12" target="SeFLylKDZ3_vUsJZjrmW-15">
          <mxGeometry relative="1" as="geometry" />
        </mxCell>
        <mxCell id="SeFLylKDZ3_vUsJZjrmW-12" value="return data.json()" style="rounded=0;whiteSpace=wrap;html=1;strokeColor=#82B366;" vertex="1" parent="1">
          <mxGeometry x="920" y="1000" width="120" height="60" as="geometry" />
        </mxCell>
        <mxCell id="SeFLylKDZ3_vUsJZjrmW-14" value="Render" style="rounded=0;whiteSpace=wrap;html=1;strokeColor=#82b366;fillColor=#d5e8d4;" vertex="1" parent="1">
          <mxGeometry x="1100" y="940" width="120" height="60" as="geometry" />
        </mxCell>
        <mxCell id="SeFLylKDZ3_vUsJZjrmW-15" value="toMap(coords, temp)" style="rounded=0;whiteSpace=wrap;html=1;strokeColor=#82B366;" vertex="1" parent="1">
          <mxGeometry x="1100" y="1000" width="120" height="60" as="geometry" />
        </mxCell>
        <mxCell id="SeFLylKDZ3_vUsJZjrmW-17" value="main.js" style="rounded=0;whiteSpace=wrap;html=1;strokeColor=#82b366;fillColor=#d5e8d4;" vertex="1" parent="1">
          <mxGeometry x="280" y="150" width="120" height="60" as="geometry" />
        </mxCell>
        <mxCell id="SeFLylKDZ3_vUsJZjrmW-18" value="leafletmap()" style="rounded=0;whiteSpace=wrap;html=1;strokeColor=#82B366;" vertex="1" parent="1">
          <mxGeometry x="280" y="210" width="120" height="60" as="geometry" />
        </mxCell>
        <mxCell id="SeFLylKDZ3_vUsJZjrmW-19" value="scripts" style="text;html=1;strokeColor=none;fillColor=none;align=center;verticalAlign=middle;whiteSpace=wrap;rounded=0;fontSize=28;" vertex="1" parent="1">
          <mxGeometry x="290" y="100" width="90" height="30" as="geometry" />
        </mxCell>
        <mxCell id="SeFLylKDZ3_vUsJZjrmW-20" value="getWeather.js" style="rounded=0;whiteSpace=wrap;html=1;strokeColor=#82b366;fillColor=#d5e8d4;" vertex="1" parent="1">
          <mxGeometry x="620" y="150" width="120" height="60" as="geometry" />
        </mxCell>
        <mxCell id="SeFLylKDZ3_vUsJZjrmW-47" style="edgeStyle=orthogonalEdgeStyle;rounded=0;orthogonalLoop=1;jettySize=auto;html=1;entryX=0;entryY=0.5;entryDx=0;entryDy=0;endArrow=none;endFill=0;exitX=1;exitY=0.5;exitDx=0;exitDy=0;" edge="1" parent="1" source="SeFLylKDZ3_vUsJZjrmW-21" target="SeFLylKDZ3_vUsJZjrmW-31">
          <mxGeometry relative="1" as="geometry">
            <Array as="points">
              <mxPoint x="760" y="240" />
              <mxPoint x="760" y="290" />
              <mxPoint x="1150" y="290" />
              <mxPoint x="1150" y="240" />
            </Array>
          </mxGeometry>
        </mxCell>
        <mxCell id="SeFLylKDZ3_vUsJZjrmW-21" value="getWeatherCoords()" style="rounded=0;whiteSpace=wrap;html=1;strokeColor=#82B366;" vertex="1" parent="1">
          <mxGeometry x="620" y="210" width="120" height="60" as="geometry" />
        </mxCell>
        <mxCell id="SeFLylKDZ3_vUsJZjrmW-22" value="Modules" style="text;html=1;strokeColor=none;fillColor=none;align=center;verticalAlign=middle;whiteSpace=wrap;rounded=0;fontSize=28;" vertex="1" parent="1">
          <mxGeometry x="890" y="40" width="120" height="30" as="geometry" />
        </mxCell>
        <mxCell id="SeFLylKDZ3_vUsJZjrmW-48" style="edgeStyle=orthogonalEdgeStyle;rounded=0;orthogonalLoop=1;jettySize=auto;html=1;endArrow=none;endFill=0;" edge="1" parent="1" source="SeFLylKDZ3_vUsJZjrmW-23">
          <mxGeometry relative="1" as="geometry">
            <mxPoint x="1160" y="240" as="targetPoint" />
            <Array as="points">
              <mxPoint x="1150" y="300" />
              <mxPoint x="1150" y="240" />
            </Array>
          </mxGeometry>
        </mxCell>
        <mxCell id="SeFLylKDZ3_vUsJZjrmW-23" value="getWeatherCity()" style="rounded=0;whiteSpace=wrap;html=1;strokeColor=#82B366;" vertex="1" parent="1">
          <mxGeometry x="620" y="270" width="120" height="60" as="geometry" />
        </mxCell>
        <mxCell id="SeFLylKDZ3_vUsJZjrmW-24" value="geoLocation.js" style="rounded=0;whiteSpace=wrap;html=1;strokeColor=#82b366;fillColor=#d5e8d4;" vertex="1" parent="1">
          <mxGeometry x="790" y="150" width="120" height="60" as="geometry" />
        </mxCell>
        <mxCell id="SeFLylKDZ3_vUsJZjrmW-52" style="edgeStyle=orthogonalEdgeStyle;rounded=0;orthogonalLoop=1;jettySize=auto;html=1;endArrow=none;endFill=0;" edge="1" parent="1" source="SeFLylKDZ3_vUsJZjrmW-25">
          <mxGeometry relative="1" as="geometry">
            <mxPoint x="1150" y="240" as="targetPoint" />
            <Array as="points">
              <mxPoint x="930" y="240" />
              <mxPoint x="930" y="130" />
              <mxPoint x="1150" y="130" />
            </Array>
          </mxGeometry>
        </mxCell>
        <mxCell id="SeFLylKDZ3_vUsJZjrmW-25" value="getLocation()" style="rounded=0;whiteSpace=wrap;html=1;strokeColor=#82B366;" vertex="1" parent="1">
          <mxGeometry x="790" y="210" width="120" height="60" as="geometry" />
        </mxCell>
        <mxCell id="SeFLylKDZ3_vUsJZjrmW-28" value="errorHandling.js" style="rounded=0;whiteSpace=wrap;html=1;strokeColor=#82b366;fillColor=#d5e8d4;" vertex="1" parent="1">
          <mxGeometry x="980" y="150" width="120" height="60" as="geometry" />
        </mxCell>
        <mxCell id="SeFLylKDZ3_vUsJZjrmW-29" value="showErr()" style="rounded=0;whiteSpace=wrap;html=1;strokeColor=#82B366;" vertex="1" parent="1">
          <mxGeometry x="980" y="210" width="120" height="60" as="geometry" />
        </mxCell>
        <mxCell id="SeFLylKDZ3_vUsJZjrmW-30" value="renderData.js" style="rounded=0;whiteSpace=wrap;html=1;strokeColor=#82b366;fillColor=#d5e8d4;" vertex="1" parent="1">
          <mxGeometry x="1160" y="150" width="120" height="60" as="geometry" />
        </mxCell>
        <mxCell id="SeFLylKDZ3_vUsJZjrmW-31" value="toMap()" style="rounded=0;whiteSpace=wrap;html=1;strokeColor=#82B366;" vertex="1" parent="1">
          <mxGeometry x="1160" y="210" width="120" height="60" as="geometry" />
        </mxCell>
        <mxCell id="SeFLylKDZ3_vUsJZjrmW-32" value="Utilities" style="text;html=1;strokeColor=none;fillColor=none;align=center;verticalAlign=middle;whiteSpace=wrap;rounded=0;fontSize=28;" vertex="1" parent="1">
          <mxGeometry x="710" y="440" width="90" height="30" as="geometry" />
        </mxCell>
        <mxCell id="SeFLylKDZ3_vUsJZjrmW-33" value="key.js" style="rounded=0;whiteSpace=wrap;html=1;strokeColor=#82b366;fillColor=#d5e8d4;" vertex="1" parent="1">
          <mxGeometry x="690" y="490" width="120" height="60" as="geometry" />
        </mxCell>
        <mxCell id="SeFLylKDZ3_vUsJZjrmW-49" style="edgeStyle=orthogonalEdgeStyle;rounded=0;orthogonalLoop=1;jettySize=auto;html=1;entryX=0.5;entryY=1;entryDx=0;entryDy=0;endArrow=none;endFill=0;" edge="1" parent="1" source="SeFLylKDZ3_vUsJZjrmW-34" target="SeFLylKDZ3_vUsJZjrmW-23">
          <mxGeometry relative="1" as="geometry">
            <Array as="points">
              <mxPoint x="700" y="440" />
              <mxPoint x="680" y="440" />
            </Array>
          </mxGeometry>
        </mxCell>
        <mxCell id="SeFLylKDZ3_vUsJZjrmW-50" style="edgeStyle=orthogonalEdgeStyle;rounded=0;orthogonalLoop=1;jettySize=auto;html=1;endArrow=none;endFill=0;" edge="1" parent="1" source="SeFLylKDZ3_vUsJZjrmW-34" target="SeFLylKDZ3_vUsJZjrmW-21">
          <mxGeometry relative="1" as="geometry">
            <Array as="points">
              <mxPoint x="670" y="580" />
              <mxPoint x="670" y="410" />
              <mxPoint x="610" y="410" />
              <mxPoint x="610" y="240" />
            </Array>
          </mxGeometry>
        </mxCell>
        <mxCell id="SeFLylKDZ3_vUsJZjrmW-34" value="weatherAPIKey" style="rounded=0;whiteSpace=wrap;html=1;strokeColor=#82B366;" vertex="1" parent="1">
          <mxGeometry x="690" y="550" width="120" height="60" as="geometry" />
        </mxCell>
        <mxCell id="SeFLylKDZ3_vUsJZjrmW-51" style="edgeStyle=orthogonalEdgeStyle;rounded=0;orthogonalLoop=1;jettySize=auto;html=1;endArrow=none;endFill=0;" edge="1" parent="1" source="SeFLylKDZ3_vUsJZjrmW-35" target="SeFLylKDZ3_vUsJZjrmW-18">
          <mxGeometry relative="1" as="geometry">
            <Array as="points">
              <mxPoint x="270" y="640" />
              <mxPoint x="270" y="240" />
            </Array>
          </mxGeometry>
        </mxCell>
        <mxCell id="SeFLylKDZ3_vUsJZjrmW-35" value="mapboxAccessToken" style="rounded=0;whiteSpace=wrap;html=1;strokeColor=#82B366;" vertex="1" parent="1">
          <mxGeometry x="690" y="610" width="120" height="60" as="geometry" />
        </mxCell>
        <mxCell id="SeFLylKDZ3_vUsJZjrmW-37" style="edgeStyle=orthogonalEdgeStyle;rounded=0;orthogonalLoop=1;jettySize=auto;html=1;endArrow=none;endFill=0;exitX=1;exitY=0.5;exitDx=0;exitDy=0;entryX=0;entryY=0.5;entryDx=0;entryDy=0;" edge="1" parent="1" source="SeFLylKDZ3_vUsJZjrmW-36" target="SeFLylKDZ3_vUsJZjrmW-25">
          <mxGeometry relative="1" as="geometry">
            <Array as="points">
              <mxPoint x="430" y="300" />
              <mxPoint x="430" y="220" />
              <mxPoint x="790" y="220" />
            </Array>
          </mxGeometry>
        </mxCell>
        <mxCell id="SeFLylKDZ3_vUsJZjrmW-36" value="ownLocation" style="rounded=0;whiteSpace=wrap;html=1;strokeColor=#82B366;" vertex="1" parent="1">
          <mxGeometry x="280" y="270" width="120" height="60" as="geometry" />
        </mxCell>
        <mxCell id="SeFLylKDZ3_vUsJZjrmW-39" style="edgeStyle=orthogonalEdgeStyle;rounded=0;orthogonalLoop=1;jettySize=auto;html=1;entryX=0;entryY=0.5;entryDx=0;entryDy=0;endArrow=none;endFill=0;exitX=1;exitY=0.5;exitDx=0;exitDy=0;" edge="1" parent="1" source="SeFLylKDZ3_vUsJZjrmW-40" target="SeFLylKDZ3_vUsJZjrmW-23">
          <mxGeometry relative="1" as="geometry" />
        </mxCell>
        <mxCell id="SeFLylKDZ3_vUsJZjrmW-41" style="edgeStyle=orthogonalEdgeStyle;rounded=0;orthogonalLoop=1;jettySize=auto;html=1;entryX=0;entryY=0.5;entryDx=0;entryDy=0;endArrow=none;endFill=0;" edge="1" parent="1" source="SeFLylKDZ3_vUsJZjrmW-38" target="SeFLylKDZ3_vUsJZjrmW-21">
          <mxGeometry relative="1" as="geometry">
            <Array as="points">
              <mxPoint x="500" y="360" />
              <mxPoint x="500" y="240" />
            </Array>
          </mxGeometry>
        </mxCell>
        <mxCell id="SeFLylKDZ3_vUsJZjrmW-38" value="clickOnMap" style="rounded=0;whiteSpace=wrap;html=1;strokeColor=#82B366;" vertex="1" parent="1">
          <mxGeometry x="280" y="330" width="120" height="60" as="geometry" />
        </mxCell>
        <mxCell id="SeFLylKDZ3_vUsJZjrmW-40" value="searchInput" style="rounded=0;whiteSpace=wrap;html=1;strokeColor=#82B366;" vertex="1" parent="1">
          <mxGeometry x="280" y="390" width="120" height="60" as="geometry" />
        </mxCell>
      </root>
    </mxGraphModel>
  </diagram>
</mxfile>
